<svg id="Group_93" data-name="Group 93" xmlns="http://www.w3.org/2000/svg" width="16.09" height="16.066" viewBox="0 0 16.09 16.066">
  <path id="Vector" d="M3.8,0a3.812,3.812,0,1,0-.1,7.623.648.648,0,0,1,.177,0h.056A3.812,3.812,0,1,0,3.8,0Z" transform="translate(1.85 0.001)" fill="#fff"/>
  <path id="Vector-2" data-name="Vector" d="M9.735,1.12a7.975,7.975,0,0,0-8.152,0A3.17,3.17,0,0,0,0,3.715,3.144,3.144,0,0,0,1.574,6.293a7.421,7.421,0,0,0,4.08,1.133,7.421,7.421,0,0,0,4.08-1.133A3.169,3.169,0,0,0,11.309,3.7,3.162,3.162,0,0,0,9.735,1.12Z" transform="translate(0 8.639)" fill="#fff"/>
  <path id="Vector-3" data-name="Vector" d="M4.723,2.637A2.875,2.875,0,0,1,2.209,5.745h-.04a.376.376,0,0,0-.137.016A2.882,2.882,0,0,1,0,5.095,3.675,3.675,0,0,0,1.2,2.043,3.728,3.728,0,0,0,.586.292,2.883,2.883,0,0,1,4.723,2.637Z" transform="translate(9.759 1.653)" fill="#fff"/>
  <path id="Vector-4" data-name="Vector" d="M6.426,3.283a2.447,2.447,0,0,1-1.4,1.912,5.669,5.669,0,0,1-2.819.626,2.867,2.867,0,0,0,.98-1.863A3.165,3.165,0,0,0,1.847,1.243,6.63,6.63,0,0,0,0,.231a6.277,6.277,0,0,1,5.381.94A2.44,2.44,0,0,1,6.426,3.283Z" transform="translate(9.662 8.436)" fill="#fff"/>
</svg>
