<!DOCTYPE svg PUBLIC "-//W3C//DTD SVG 1.1//EN" "http://www.w3.org/Graphics/SVG/1.1/DTD/svg11.dtd">
<!-- Uploaded to: SVG Repo, www.svgrepo.com, Transformed by: SVG Repo Mixer Tools -->
<svg width="800px" height="800px" viewBox="0 0 24 24" xmlns="http://www.w3.org/2000/svg" id="chat-alt-3" class="icon glyph" fill="#ffffff">
<g id="SVGRepo_bgCarrier" stroke-width="0"/>
<g id="SVGRepo_tracerCarrier" stroke-linecap="round" stroke-linejoin="round"/>
<g id="SVGRepo_iconCarrier">
<path d="M19.91,16.51A8.45,8.45,0,0,0,22,11c0-5-4.49-9-10-9S2,6,2,11s4.49,9,10,9a10.9,10.9,0,0,0,3-.41l4.59,2.3A.91.91,0,0,0,20,22a1,1,0,0,0,.62-.22,1,1,0,0,0,.35-1ZM8,12a1,1,0,1,1,1-1A1,1,0,0,1,8,12Zm4,0a1,1,0,1,1,1-1A1,1,0,0,1,12,12Zm4,0a1,1,0,1,1,1-1A1,1,0,0,1,16,12Z" style="fill:#FFFFFF"/>
</g>
</svg>