<!DOCTYPE svg PUBLIC "-//W3C//DTD SVG 1.1//EN" "http://www.w3.org/Graphics/SVG/1.1/DTD/svg11.dtd">
<!-- Uploaded to: SVG Repo, www.svgrepo.com, Transformed by: SVG Repo Mixer Tools -->
<svg version="1.0" id="Layer_1" xmlns="http://www.w3.org/2000/svg" xmlns:xlink="http://www.w3.org/1999/xlink" width="20" height="20" viewBox="0 0 64 64" enable-background="new 0 0 64 64" xml:space="preserve" fill="#B1B1B1" stroke="#B1B1B1" stroke-width="0.00064">

<g id="SVGRepo_bgCarrier" stroke-width="0"/>

<g id="SVGRepo_tracerCarrier" stroke-linecap="round" stroke-linejoin="round"/>

<g id="SVGRepo_iconCarrier"> <path fill="#B1B1B1" d="M32,0C14.328,0,0,14.328,0,32s14.328,32,32,32s32-14.328,32-32S49.672,0,32,0z M42.844,42.844 c-1.566,1.566-4.168,1.488-5.734-0.078l-7.934-7.934c-0.371-0.367-0.664-0.812-0.867-1.305C28.105,33.039,28,32.523,28,32V16 c0-2.211,1.789-4,4-4s4,1.789,4,4v14.344l6.859,6.859C44.426,38.77,44.406,41.281,42.844,42.844z"/> </g>

</svg>