<svg width="54" height="25" viewBox="0 0 54 25" fill="none" xmlns="http://www.w3.org/2000/svg">
    <path d="M4.16368 8.97534L5.37774 11.19L7.58907 12.4059L5.37774 13.6219L4.16368 15.8366L2.94961 13.6219L0.738281 12.4059L2.94961 11.19L4.16368 8.97534Z" fill="white"/>
    <path d="M50.2113 8.97534L51.4253 11.19L53.6367 12.4059L51.4253 13.6219L50.2113 15.8366L48.9972 13.6219L46.7859 12.4059L48.9972 11.19L50.2113 8.97534Z" fill="white"/>
    <path d="M27.2742 5.11052C26.5805 5.73295 26.0024 6.25406 25.4965 6.87649C24.875 7.64367 24.3547 8.46875 23.95 9.36621C23.8055 9.69914 23.6321 9.80047 23.2852 9.80047C21.5942 9.78599 19.9031 9.80047 18.2121 9.78599C17.8219 9.78599 17.7063 9.88732 17.7063 10.2926C17.7207 12.2757 17.7063 14.2443 17.7207 16.2274C17.7352 18.3553 19.0793 19.687 21.175 19.7159C23.2996 19.7449 24.6727 18.4421 24.7449 16.2853C24.8028 14.7075 24.7305 13.1298 25.1641 11.5809C26.2625 7.70157 29.9914 4.77759 33.9805 4.66179C34.3418 4.64732 34.4719 4.73417 34.4575 5.125C34.4285 6.31196 34.443 7.49892 34.4575 8.68588C34.4575 8.91749 34.4575 9.07671 34.1395 9.07671C31.9715 9.06223 29.8469 10.8861 29.4278 13.6219C29.3266 14.3167 29.3266 15.0115 29.4422 15.7063C29.9481 18.804 28.734 21.1924 26.2914 22.9294C22.8805 25.3468 17.6629 24.8257 14.9024 21.8727C13.4137 20.2805 12.8067 18.3263 12.7922 16.184C12.7633 12.6086 12.7777 9.03328 12.7922 5.44345C12.8067 2.75107 14.6711 0.695602 17.2582 0.406099C17.6485 0.362673 17.7352 0.463999 17.7352 0.840353C17.7207 2.08522 17.7496 3.33008 17.7207 4.57494C17.7063 5.00919 17.8219 5.15395 18.2699 5.13947C21.1028 5.125 23.95 5.125 26.7973 5.125H27.2742V5.11052Z" fill="white"/>
    <path d="M37.7961 16.4155C35.9895 16.4155 34.1828 16.401 32.3761 16.43C31.9715 16.43 31.8703 16.3142 31.8847 15.9234C31.9136 14.9246 31.9136 13.9258 31.8847 12.927C31.8703 12.5072 31.9859 12.3914 32.405 12.3914C34.414 12.4204 36.4231 12.3914 38.4465 12.4059C38.8512 12.4059 38.9379 12.3335 38.7645 11.9427C38.3453 11.0018 37.7383 10.2202 36.8277 9.728C36.4664 9.53983 36.3797 9.30822 36.3797 8.93187C36.3941 7.74491 36.4086 6.55795 36.3797 5.37099C36.3652 4.92226 36.4664 4.83541 36.9145 4.95121C40.47 5.86315 43.1149 8.84502 43.6786 12.623C43.8376 13.7231 43.8809 14.8377 43.8087 15.9378C43.7797 16.3431 43.6352 16.4155 43.2739 16.4155C41.4383 16.401 39.6172 16.4155 37.7961 16.4155Z" fill="white"/>
    <path d="M31.2778 18.9197C32.6942 20.0053 34.2407 20.2369 35.8883 19.7737C36.7844 19.5132 37.5215 19.0355 38.0852 18.2828C38.2586 18.0512 38.4465 17.9499 38.7356 17.9499C40.1231 17.9644 41.5105 17.9788 42.9125 17.9499C43.375 17.9354 43.3895 18.0946 43.2594 18.471C42.0453 21.7713 39.6606 23.6675 36.2496 24.2755C33.9371 24.6953 31.7258 24.3624 29.659 23.2043C29.3122 23.0162 29.1821 22.9004 29.5001 22.524C30.3383 21.4673 30.8875 20.2514 31.2778 18.9197Z" fill="white"/>
</svg>