<svg xmlns="http://www.w3.org/2000/svg" width="24" height="24" viewBox="0 0 24 24">
  <g id="_logout" data-name=" logout" transform="translate(-748 -444)">
    <g id="logout">
      <path id="Vector" d="M0,5.2v9.59A4.835,4.835,0,0,0,5.2,20H7.79a4.832,4.832,0,0,0,5.2-5.2V5.2A4.819,4.819,0,0,0,7.8,0H5.2A4.832,4.832,0,0,0,0,5.2Z" transform="translate(757 446)" fill="#fff" opacity="0.4"/>
      <path id="Vector-2" data-name="Vector" d="M3.568.225.218,3.575a.754.754,0,0,0,0,1.06l3.35,3.35a.75.75,0,1,0,1.06-1.06l-2.07-2.07h10.69a.75.75,0,0,0,0-1.5H2.557l2.07-2.07a.742.742,0,0,0,.22-.53.725.725,0,0,0-.22-.53.737.737,0,0,0-1.059,0Z" transform="translate(750.003 451.895)" fill="#fff"/>
      <path id="Vector-3" data-name="Vector" d="M0,0H24V24H0Z" transform="translate(748 444)" fill="none" opacity="0"/>
    </g>
  </g>
</svg>
