<svg width="51" height="24" viewBox="0 0 51 24" fill="none" xmlns="http://www.w3.org/2000/svg">
<path d="M3.8962 8.98438L5.0512 11.0807L7.15495 12.2317L5.0512 13.3826L3.8962 15.479L2.7412 13.3826L0.637451 12.2317L2.7412 11.0807L3.8962 8.98438Z" fill="#F3AF1C"/>
<path d="M47.7037 8.98438L48.8587 11.0807L50.9624 12.2317L48.8587 13.3826L47.7037 15.479L46.5487 13.3826L44.4449 12.2317L46.5487 11.0807L47.7037 8.98438Z" fill="#F3AF1C"/>
<path d="M25.8825 5.32592C25.2225 5.9151 24.6725 6.40836 24.1913 6.99753C23.6 7.72372 23.105 8.50471 22.72 9.35421C22.5825 9.66935 22.4175 9.76526 22.0875 9.76526C20.4787 9.75156 18.87 9.76526 17.2612 9.75156C16.89 9.75156 16.78 9.84747 16.78 10.2311C16.7937 12.1082 16.78 13.9717 16.7937 15.8488C16.8075 17.8629 18.0862 19.1235 20.08 19.1509C22.1013 19.1783 23.4075 17.9452 23.4762 15.9036C23.5312 14.4101 23.4625 12.9166 23.875 11.4506C24.92 7.77852 28.4675 5.01079 32.2625 4.90117C32.6063 4.88747 32.73 4.96968 32.7163 5.33963C32.6888 6.46316 32.7025 7.5867 32.7163 8.71024C32.7163 8.92946 32.7163 9.08018 32.4138 9.08018C30.3513 9.06648 28.33 10.7929 27.9313 13.3825C27.835 14.0402 27.835 14.6979 27.945 15.3555C28.4263 18.2877 27.2713 20.5485 24.9475 22.1927C21.7025 24.4809 16.7387 23.9876 14.1125 21.1925C12.6962 19.6853 12.1187 17.8355 12.105 15.8077C12.0775 12.4234 12.0912 9.03907 12.105 5.64106C12.1187 3.09255 13.8925 1.14692 16.3537 0.872883C16.725 0.831778 16.8075 0.92769 16.8075 1.28393C16.7937 2.46228 16.8212 3.64062 16.7937 4.81896C16.78 5.23001 16.89 5.36703 17.3162 5.35333C20.0112 5.33963 22.72 5.33963 25.4288 5.33963H25.8825V5.32592Z" fill="#0F113C"/>
<path d="M35.8925 16.027C34.1737 16.027 32.455 16.0133 30.7362 16.0407C30.3512 16.0407 30.255 15.9311 30.2687 15.5611C30.2962 14.6157 30.2962 13.6703 30.2687 12.7249C30.255 12.3275 30.365 12.2179 30.7637 12.2179C32.675 12.2453 34.5862 12.2179 36.5113 12.2316C36.8963 12.2316 36.9788 12.1631 36.8138 11.7932C36.415 10.9026 35.8375 10.1627 34.9712 9.69683C34.6275 9.51871 34.545 9.29949 34.545 8.94324C34.5587 7.81971 34.5725 6.69618 34.545 5.57264C34.5312 5.14789 34.6275 5.06568 35.0537 5.1753C38.4363 6.0385 40.9525 8.86103 41.4888 12.4372C41.64 13.4785 41.6813 14.5335 41.6125 15.5748C41.585 15.9585 41.4475 16.027 41.1038 16.027C39.3575 16.0133 37.625 16.027 35.8925 16.027Z" fill="#F3AF1C"/>
<path d="M29.6913 18.3974C31.0388 19.425 32.51 19.6442 34.0775 19.2058C34.93 18.9591 35.6312 18.507 36.1675 17.7945C36.3325 17.5753 36.5112 17.4794 36.7862 17.4794C38.1062 17.4931 39.4262 17.5068 40.76 17.4794C41.2 17.4657 41.2137 17.6164 41.09 17.9726C39.935 21.0966 37.6662 22.8915 34.4212 23.467C32.2213 23.8643 30.1175 23.5492 28.1513 22.4531C27.8213 22.2749 27.6975 22.1653 28 21.8091C28.7975 20.8089 29.32 19.6579 29.6913 18.3974Z" fill="#F3AF1C"/>
</svg>
