<svg xmlns="http://www.w3.org/2000/svg" width="15.632" height="19.976" viewBox="0 0 15.632 19.976">
  <g id="quality-medal-svgrepo-com" transform="translate(-55.666)">
    <g id="Group_1964" data-name="Group 1964" transform="translate(57.348 15.252)">
      <g id="Group_1963" data-name="Group 1963">
        <path id="Path_1207" data-name="Path 1207" d="M103.759,391.278a2.482,2.482,0,0,1-2.811.421,2.561,2.561,0,0,1-.865-.671l-1.3,2.877a.25.25,0,0,0,.295.344l.947-.264a1.206,1.206,0,0,1,1.411.638l.428.885a.25.25,0,0,0,.453-.006l2.069-4.577A1.553,1.553,0,0,0,103.759,391.278Z" transform="translate(-98.758 -390.926)" fill="#fff"/>
      </g>
    </g>
    <g id="Group_1966" data-name="Group 1966" transform="translate(63.991 15.252)">
      <g id="Group_1965" data-name="Group 1965">
        <path id="Path_1208" data-name="Path 1208" d="M274.625,393.9l-1.3-2.877a2.56,2.56,0,0,1-.865.671,2.482,2.482,0,0,1-2.811-.421,1.553,1.553,0,0,0-.626-.352l2.069,4.577a.25.25,0,0,0,.453.006l.428-.885a1.206,1.206,0,0,1,1.411-.638l.947.264a.25.25,0,0,0,.3-.344Z" transform="translate(-269.022 -390.926)" fill="#fff"/>
      </g>
    </g>
    <g id="Group_1968" data-name="Group 1968" transform="translate(55.666)">
      <g id="Group_1967" data-name="Group 1967" transform="translate(0)">
        <path id="Path_1209" data-name="Path 1209" d="M70.615,8.107a2.539,2.539,0,0,1-.763-3.344,1.569,1.569,0,0,0-1.82-2.282A2.539,2.539,0,0,1,64.942.993a1.569,1.569,0,0,0-2.919,0,2.539,2.539,0,0,1-3.09,1.488,1.569,1.569,0,0,0-1.82,2.282,2.539,2.539,0,0,1-.763,3.344A1.569,1.569,0,0,0,57,10.953a2.539,2.539,0,0,1,2.138,2.681,1.569,1.569,0,0,0,2.63,1.267,2.539,2.539,0,0,1,3.43,0,1.569,1.569,0,0,0,2.63-1.267,2.539,2.539,0,0,1,2.138-2.681,1.569,1.569,0,0,0,.65-2.846Zm-7.133,5a5.135,5.135,0,1,1,5.135-5.135A5.141,5.141,0,0,1,63.482,13.106Z" transform="translate(-55.666 0)" fill="#fff"/>
      </g>
    </g>
    <g id="Group_1970" data-name="Group 1970" transform="translate(59.305 3.793)">
      <g id="Group_1969" data-name="Group 1969">
        <path id="Path_1210" data-name="Path 1210" d="M153.1,97.225a4.178,4.178,0,1,0,4.178,4.178A4.182,4.182,0,0,0,153.1,97.225ZM155.239,101l-2.6,1.9a.479.479,0,0,1-.674-.111l-.778-1.107a.479.479,0,1,1,.784-.55l.5.708,2.206-1.611a.479.479,0,1,1,.565.773Z" transform="translate(-148.92 -97.225)" fill="#fff"/>
      </g>
    </g>
  </g>
</svg>
