<svg xmlns="http://www.w3.org/2000/svg" width="13.437" height="19.55" viewBox="0 0 13.437 19.55">
  <path id="Icon_awesome-question" data-name="Icon awesome-question" d="M8.536,0A7.4,7.4,0,0,0,1.965,3.476a.917.917,0,0,0,.2,1.255L3.81,5.98a.916.916,0,0,0,1.27-.158c.956-1.2,1.666-1.888,3.16-1.888,1.175,0,2.628.756,2.628,1.9,0,.861-.711,1.3-1.871,1.954-1.353.758-3.143,1.7-3.143,4.063v.374a.916.916,0,0,0,.916.916H9.537a.916.916,0,0,0,.916-.916V12c0-1.637,4.783-1.7,4.783-6.133C15.237,2.53,11.778,0,8.536,0ZM8.154,14.26A2.645,2.645,0,1,0,10.8,16.905,2.648,2.648,0,0,0,8.154,14.26Z" transform="translate(-1.8)" fill="#fff"/>
</svg>
