<svg id="Group_2" data-name="Group 2" xmlns="http://www.w3.org/2000/svg" width="19.277" height="19.277" viewBox="0 0 19.277 19.277">
  <path id="Vector" d="M16.666,1.2H.6A.606.606,0,0,1,0,.6.606.606,0,0,1,.6,0H16.666a.606.606,0,0,1,.6.6A.606.606,0,0,1,16.666,1.2Z" transform="translate(1.004 16.465)" fill="#fff"/>
  <path id="Vector-2" data-name="Vector" d="M0,1.606V16.064H3.614V1.606C3.614.723,3.253,0,2.169,0H1.446C.361,0,0,.723,0,1.606Z" transform="translate(9.638 1.606)" fill="#fff"/>
  <path id="Vector-3" data-name="Vector" d="M0,1.606v9.638H3.213V1.606C3.213.723,2.892,0,1.928,0H1.285C.321,0,0,.723,0,1.606Z" transform="translate(5.622 6.426)" fill="#fff"/>
  <path id="Vector-4" data-name="Vector" d="M0,1.488V4.121H3.213V1.488A1.375,1.375,0,0,0,1.928,0H1.285C.321,0,.05.942,0,1.488Z" transform="translate(1.606 13.549)" fill="#fff"/>
  <path id="Vector-5" data-name="Vector" d="M0,1.606V7.229H3.213V1.606C3.213.723,2.892,0,1.928,0H1.285C.321,0,0,.723,0,1.606Z" transform="translate(14.458 10.442)" fill="#fff"/>
  <path id="Vector-6" data-name="Vector" d="M0,0H19.277V19.277H0Z" transform="translate(0 0)" fill="none" opacity="0"/>
</svg>
