<svg
  xmlns="http://www.w3.org/2000/svg"
  width="24"
  height="24"
  viewBox="0 0 24 24"
  xmlns:xlink="http://www.w3.org/1999/xlink"
  >
  <path
    d="M7 19.5C7 20.8807 5.88071 22 4.5 22C3.11929 22 2 20.8807 2 19.5C2 18.1193 3.11929 17 4.5 17C5.88071 17 7 18.1193 7 19.5Z"
    fill="None"
    stroke="#fff"
    stroke-width="1.5"
  ></path>
  <path
    d="M22 19.5C22 20.8807 20.8807 22 19.5 22C18.1193 22 17 20.8807 17 19.5C17 18.1193 18.1193 17 19.5 17C20.8807 17 22 18.1193 22 19.5Z"
    fill="None"
    stroke="#fff"
    stroke-width="1.5"
  ></path>
  <path
    d="M19.5002 17V16C19.5002 14.8954 18.6048 14 17.5002 14H6.50133C5.39703 14 4.50171 14.895 4.50133 15.9993L4.50098 17"
    fill="None"
    stroke="#fff"
    stroke-width="1.5"
    stroke-linejoin="round"
  ></path>
  <path
    d="M12 6.5L13 5M16.5 6.5C16.5 8.98528 14.4853 11 12 11C9.51472 11 7.5 8.98528 7.5 6.5C7.5 4.01472 9.51472 2 12 2C14.4853 2 16.5 4.01472 16.5 6.5Z"
    fill="None"
    stroke="#fff"
    stroke-width="1.5"
    stroke-linecap="round"
  ></path>
</svg>