<svg width="26" height="26" viewBox="0 0 26 26" fill="none" xmlns="http://www.w3.org/2000/svg">
<path d="M13 2.1665C11.2147 2.1665 9.75001 3.63124 9.75001 5.4165H4.06251C3.95484 5.41498 3.84795 5.43487 3.74803 5.47502C3.64812 5.51517 3.55719 5.57478 3.48051 5.65037C3.40384 5.72597 3.34295 5.81606 3.30139 5.91539C3.25983 6.01472 3.23843 6.12133 3.23843 6.229C3.23843 6.33668 3.25983 6.44328 3.30139 6.54262C3.34295 6.64195 3.40384 6.73204 3.48051 6.80763C3.55719 6.88323 3.64812 6.94284 3.74803 6.98299C3.84795 7.02314 3.95484 7.04303 4.06251 7.0415H5.41667V20.854C5.41667 22.4969 6.75296 23.8332 8.39584 23.8332H13.8844C13.4213 23.3516 13.0274 22.8056 12.7154 22.2082H8.39584C7.64942 22.2082 7.04167 21.6004 7.04167 20.854V7.0415H18.9583V11.9165C19.5184 11.9165 20.0606 11.9887 20.5833 12.1122V7.0415H21.9375C22.0452 7.04303 22.1521 7.02314 22.252 6.98299C22.3519 6.94284 22.4428 6.88323 22.5195 6.80763C22.5962 6.73204 22.6571 6.64195 22.6986 6.54262C22.7402 6.44328 22.7616 6.33668 22.7616 6.229C22.7616 6.12133 22.7402 6.01472 22.6986 5.91539C22.6571 5.81606 22.5962 5.72597 22.5195 5.65037C22.4428 5.57478 22.3519 5.51517 22.252 5.47502C22.1521 5.43487 22.0452 5.41498 21.9375 5.4165H16.25C16.25 3.63124 14.7853 2.1665 13 2.1665ZM13 3.7915C13.9068 3.7915 14.625 4.50968 14.625 5.4165H11.375C11.375 4.50968 12.0932 3.7915 13 3.7915ZM11.0915 9.7382C10.8762 9.74156 10.671 9.83025 10.521 9.98477C10.3711 10.1393 10.2886 10.347 10.2917 10.5623V18.6873C10.2902 18.795 10.31 18.9019 10.3502 19.0018C10.3903 19.1017 10.4499 19.1927 10.5255 19.2693C10.6011 19.346 10.6912 19.4069 10.7906 19.4485C10.8899 19.49 10.9965 19.5114 11.1042 19.5114C11.2118 19.5114 11.3185 19.49 11.4178 19.4485C11.5171 19.4069 11.6072 19.346 11.6828 19.2693C11.7584 19.1927 11.818 19.1017 11.8582 19.0018C11.8983 18.9019 11.9182 18.795 11.9167 18.6873V10.5623C11.9182 10.4536 11.8979 10.3456 11.857 10.2449C11.8161 10.1441 11.7553 10.0526 11.6784 9.97573C11.6014 9.89888 11.5098 9.83825 11.409 9.79745C11.3082 9.75665 11.2002 9.7365 11.0915 9.7382ZM14.8958 9.74984C14.4468 9.74984 14.0833 10.1133 14.0833 10.5623V13.8843C14.5649 13.4212 15.1109 13.0273 15.7083 12.7153V10.5623C15.7083 10.1133 15.3449 9.74984 14.8958 9.74984ZM18.9583 12.9998C15.6677 12.9998 13 15.6675 13 18.9582C13 22.2488 15.6677 24.9165 18.9583 24.9165C22.249 24.9165 24.9167 22.2488 24.9167 18.9582C24.9167 15.6675 22.249 12.9998 18.9583 12.9998ZM16.25 15.7082C16.3885 15.7082 16.5271 15.761 16.633 15.8669L18.9583 18.1922L21.2837 15.8669C21.4955 15.6551 21.8379 15.6551 22.0496 15.8669C22.2614 16.0787 22.2614 16.421 22.0496 16.6328L19.7243 18.9582L22.0496 21.2835C22.2614 21.4953 22.2614 21.8377 22.0496 22.0495C21.944 22.1551 21.8053 22.2082 21.6667 22.2082C21.528 22.2082 21.3893 22.1551 21.2837 22.0495L18.9583 19.7241L16.633 22.0495C16.5274 22.1551 16.3887 22.2082 16.25 22.2082C16.1113 22.2082 15.9727 22.1551 15.867 22.0495C15.6552 21.8377 15.6552 21.4953 15.867 21.2835L18.1924 18.9582L15.867 16.6328C15.6552 16.421 15.6552 16.0787 15.867 15.8669C15.9729 15.761 16.1115 15.7082 16.25 15.7082Z" fill="#818181"/>
</svg>
